<mxfile host="65bd71144e">
    <diagram id="Yob7NXNFcY4a5N2oCJzb" name="Page-1">
        <mxGraphModel dx="3088" dy="1360" grid="1" gridSize="1" guides="1" tooltips="1" connect="1" arrows="1" fold="1" page="1" pageScale="1" pageWidth="850" pageHeight="1100" math="0" shadow="0">
            <root>
                <mxCell id="0"/>
                <mxCell id="1" parent="0"/>
                <mxCell id="3" value="file" style="swimlane;fontStyle=0;childLayout=stackLayout;horizontal=1;startSize=30;horizontalStack=0;resizeParent=1;resizeParentMax=0;resizeLast=0;collapsible=1;marginBottom=0;whiteSpace=wrap;html=1;shadow=0;dashed=1;dashPattern=1 4;gradientColor=none;swimlaneFillColor=default;" vertex="1" parent="1">
                    <mxGeometry x="-290" y="160" width="250" height="120" as="geometry"/>
                </mxCell>
                <mxCell id="4" value="hello dolly" style="text;strokeColor=none;fillColor=none;align=left;verticalAlign=middle;spacingLeft=4;spacingRight=4;overflow=hidden;points=[[0,0.5],[1,0.5]];portConstraint=eastwest;rotatable=0;whiteSpace=wrap;html=1;shadow=0;dashed=1;dashPattern=1 4;" vertex="1" parent="3">
                    <mxGeometry y="30" width="250" height="30" as="geometry"/>
                </mxCell>
                <mxCell id="5" value="goodbye" style="text;strokeColor=none;fillColor=none;align=left;verticalAlign=middle;spacingLeft=4;spacingRight=4;overflow=hidden;points=[[0,0.5],[1,0.5]];portConstraint=eastwest;rotatable=0;whiteSpace=wrap;html=1;shadow=0;dashed=1;dashPattern=1 4;" vertex="1" parent="3">
                    <mxGeometry y="60" width="250" height="30" as="geometry"/>
                </mxCell>
                <mxCell id="6" value="Back again" style="text;strokeColor=none;fillColor=none;align=left;verticalAlign=middle;spacingLeft=4;spacingRight=4;overflow=hidden;points=[[0,0.5],[1,0.5]];portConstraint=eastwest;rotatable=0;whiteSpace=wrap;html=1;shadow=0;dashed=1;dashPattern=1 4;" vertex="1" parent="3">
                    <mxGeometry y="90" width="250" height="30" as="geometry"/>
                </mxCell>
                <mxCell id="7" value="gnl()" style="rounded=1;whiteSpace=wrap;html=1;shadow=0;dashed=1;dashPattern=1 4;gradientColor=none;" vertex="1" parent="1">
                    <mxGeometry x="340" y="160" width="120" height="60" as="geometry"/>
                </mxCell>
                <mxCell id="8" value="" style="shape=flexArrow;endArrow=classic;html=1;" edge="1" parent="1" source="7">
                    <mxGeometry width="50" height="50" relative="1" as="geometry">
                        <mxPoint x="360" y="390" as="sourcePoint"/>
                        <mxPoint x="410" y="340" as="targetPoint"/>
                    </mxGeometry>
                </mxCell>
                <mxCell id="9" value="Check fd" style="rhombus;whiteSpace=wrap;html=1;shadow=0;dashed=1;dashPattern=1 4;gradientColor=none;" vertex="1" parent="1">
                    <mxGeometry x="370" y="340" width="80" height="80" as="geometry"/>
                </mxCell>
                <mxCell id="10" value="" style="shape=flexArrow;endArrow=classic;html=1;exitX=0.408;exitY=0.918;exitDx=0;exitDy=0;exitPerimeter=0;fillColor=#008a00;strokeColor=#005700;" edge="1" parent="1" source="9">
                    <mxGeometry width="50" height="50" relative="1" as="geometry">
                        <mxPoint x="430" y="640" as="sourcePoint"/>
                        <mxPoint x="400" y="590" as="targetPoint"/>
                    </mxGeometry>
                </mxCell>
                <mxCell id="11" value="" style="shape=flexArrow;endArrow=classic;html=1;fillColor=#a20025;strokeColor=#6F0000;" edge="1" parent="1" source="9">
                    <mxGeometry width="50" height="50" relative="1" as="geometry">
                        <mxPoint x="540" y="380" as="sourcePoint"/>
                        <mxPoint x="590" y="330" as="targetPoint"/>
                    </mxGeometry>
                </mxCell>
                <mxCell id="12" value="EROOR and NULL" style="shape=tape;whiteSpace=wrap;html=1;shadow=0;dashed=1;dashPattern=1 4;gradientColor=none;" vertex="1" parent="1">
                    <mxGeometry x="590" y="280" width="120" height="100" as="geometry"/>
                </mxCell>
                <mxCell id="13" value="Check Buffersize" style="rhombus;whiteSpace=wrap;html=1;shadow=0;dashed=1;dashPattern=1 4;gradientColor=none;" vertex="1" parent="1">
                    <mxGeometry x="360" y="580" width="80" height="80" as="geometry"/>
                </mxCell>
                <mxCell id="14" value="" style="shape=flexArrow;endArrow=classic;html=1;exitX=0.408;exitY=0.918;exitDx=0;exitDy=0;exitPerimeter=0;fillColor=#008a00;strokeColor=#005700;width=22;endSize=21.78;" edge="1" parent="1">
                    <mxGeometry width="50" height="50" relative="1" as="geometry">
                        <mxPoint x="401.3199999999999" y="660" as="sourcePoint"/>
                        <mxPoint x="398.68" y="836.56" as="targetPoint"/>
                    </mxGeometry>
                </mxCell>
                <mxCell id="15" value="EROOR and NULL" style="shape=tape;whiteSpace=wrap;html=1;shadow=0;dashed=1;dashPattern=1 4;gradientColor=none;" vertex="1" parent="1">
                    <mxGeometry x="590" y="530" width="120" height="100" as="geometry"/>
                </mxCell>
                <mxCell id="16" value="" style="shape=flexArrow;endArrow=classic;html=1;fillColor=#a20025;strokeColor=#6F0000;" edge="1" parent="1">
                    <mxGeometry width="50" height="50" relative="1" as="geometry">
                        <mxPoint x="440.004347826087" y="621.304347826087" as="sourcePoint"/>
                        <mxPoint x="588.7" y="580" as="targetPoint"/>
                    </mxGeometry>
                </mxCell>
                <mxCell id="17" value="Create static var = static&amp;nbsp; char&amp;nbsp; [buffersize]&lt;br&gt;char buffer[buffersize +1]&lt;br&gt;" style="rounded=1;whiteSpace=wrap;html=1;shadow=0;dashed=1;dashPattern=1 4;gradientColor=none;" vertex="1" parent="1">
                    <mxGeometry x="215" y="840" width="370" height="80" as="geometry"/>
                </mxCell>
                <mxCell id="18" value="" style="shape=flexArrow;endArrow=classic;html=1;exitX=0.5;exitY=1;exitDx=0;exitDy=0;" edge="1" parent="1" source="17">
                    <mxGeometry width="50" height="50" relative="1" as="geometry">
                        <mxPoint x="350" y="1040" as="sourcePoint"/>
                        <mxPoint x="400" y="987" as="targetPoint"/>
                    </mxGeometry>
                </mxCell>
                <mxCell id="19" value="read in buffeer" style="rounded=1;whiteSpace=wrap;html=1;shadow=0;dashed=1;dashPattern=1 4;gradientColor=none;" vertex="1" parent="1">
                    <mxGeometry x="237.5" y="1090" width="325" height="90" as="geometry"/>
                </mxCell>
                <mxCell id="20" value="" style="shape=flexArrow;endArrow=classic;html=1;exitX=0.5;exitY=1;exitDx=0;exitDy=0;" edge="1" parent="1" source="19">
                    <mxGeometry width="50" height="50" relative="1" as="geometry">
                        <mxPoint x="430" y="1380" as="sourcePoint"/>
                        <mxPoint x="400" y="1253" as="targetPoint"/>
                    </mxGeometry>
                </mxCell>
                <mxCell id="21" value="copy buffer after \n in static" style="rounded=1;whiteSpace=wrap;html=1;shadow=0;dashed=1;dashPattern=1 4;gradientColor=none;" vertex="1" parent="1">
                    <mxGeometry x="-271" y="1634" width="330" height="150" as="geometry"/>
                </mxCell>
                <mxCell id="23" value="EROOR and NULL" style="shape=tape;whiteSpace=wrap;html=1;shadow=0;dashed=1;dashPattern=1 4;gradientColor=none;" vertex="1" parent="1">
                    <mxGeometry x="670" y="1070" width="120" height="100" as="geometry"/>
                </mxCell>
                <mxCell id="27" value="check buffer for&amp;nbsp;&lt;br&gt;\n" style="rhombus;whiteSpace=wrap;html=1;shadow=0;dashed=1;dashPattern=1 4;gradientColor=none;" vertex="1" parent="1">
                    <mxGeometry x="299" y="1253" width="207.5" height="170" as="geometry"/>
                </mxCell>
                <mxCell id="28" value="" style="curved=1;endArrow=classic;html=1;fillColor=#a20025;strokeColor=#6F0000;strokeWidth=8;" edge="1" parent="1" source="27">
                    <mxGeometry width="50" height="50" relative="1" as="geometry">
                        <mxPoint x="110" y="1640" as="sourcePoint"/>
                        <mxPoint x="44" y="1407" as="targetPoint"/>
                        <Array as="points">
                            <mxPoint x="160" y="1640"/>
                            <mxPoint x="110" y="1590"/>
                        </Array>
                    </mxGeometry>
                </mxCell>
                <mxCell id="29" value="" style="shape=flexArrow;endArrow=classic;html=1;fillColor=#008a00;strokeColor=#005700;width=22;endSize=21.78;" edge="1" parent="1" source="27">
                    <mxGeometry width="50" height="50" relative="1" as="geometry">
                        <mxPoint x="401.3199999999997" y="1750" as="sourcePoint"/>
                        <mxPoint x="398.67999999999984" y="1926.56" as="targetPoint"/>
                    </mxGeometry>
                </mxCell>
                <mxCell id="30" value="store in result nut until new line" style="rounded=1;whiteSpace=wrap;html=1;shadow=0;dashed=1;dashPattern=1 4;gradientColor=none;" vertex="1" parent="1">
                    <mxGeometry x="239" y="1909" width="320" height="170" as="geometry"/>
                </mxCell>
                <mxCell id="31" value="EROOR and NULL" style="shape=tape;whiteSpace=wrap;html=1;shadow=0;dashed=1;dashPattern=1 4;gradientColor=none;" vertex="1" parent="1">
                    <mxGeometry x="680" y="1880" width="120" height="100" as="geometry"/>
                </mxCell>
                <mxCell id="32" value="" style="shape=flexArrow;endArrow=classic;html=1;fillColor=#a20025;strokeColor=#6F0000;" edge="1" parent="1">
                    <mxGeometry width="50" height="50" relative="1" as="geometry">
                        <mxPoint x="540.0043478260868" y="1155.654347826087" as="sourcePoint"/>
                        <mxPoint x="688.6999999999998" y="1114.35" as="targetPoint"/>
                    </mxGeometry>
                </mxCell>
                <mxCell id="33" value="" style="shape=flexArrow;endArrow=classic;html=1;fillColor=#a20025;strokeColor=#6F0000;" edge="1" parent="1">
                    <mxGeometry width="50" height="50" relative="1" as="geometry">
                        <mxPoint x="540.0043478260868" y="1971.304347826087" as="sourcePoint"/>
                        <mxPoint x="688.6999999999998" y="1930" as="targetPoint"/>
                    </mxGeometry>
                </mxCell>
                <mxCell id="34" value="" style="shape=flexArrow;endArrow=classic;html=1;strokeWidth=8;exitX=0.5;exitY=1;exitDx=0;exitDy=0;width=17;endSize=2.34;" edge="1" parent="1" source="30">
                    <mxGeometry width="50" height="50" relative="1" as="geometry">
                        <mxPoint x="440" y="2190" as="sourcePoint"/>
                        <mxPoint x="380" y="2250" as="targetPoint"/>
                    </mxGeometry>
                </mxCell>
                <mxCell id="35" value="update static" style="rounded=1;whiteSpace=wrap;html=1;shadow=0;dashed=1;dashPattern=1 4;gradientColor=none;" vertex="1" parent="1">
                    <mxGeometry x="234" y="2248" width="294" height="128" as="geometry"/>
                </mxCell>
                <mxCell id="37" value="" style="shape=flexArrow;endArrow=classic;html=1;strokeWidth=8;exitX=0.5;exitY=1;exitDx=0;exitDy=0;width=17;endSize=2.34;" edge="1" parent="1">
                    <mxGeometry width="50" height="50" relative="1" as="geometry">
                        <mxPoint x="393.5" y="2091" as="sourcePoint"/>
                        <mxPoint x="381" y="2251" as="targetPoint"/>
                    </mxGeometry>
                </mxCell>
                <mxCell id="38" value="" style="shape=flexArrow;endArrow=classic;html=1;strokeWidth=8;exitX=0.5;exitY=1;exitDx=0;exitDy=0;width=17;endSize=2.34;" edge="1" parent="1">
                    <mxGeometry width="50" height="50" relative="1" as="geometry">
                        <mxPoint x="384.5" y="2378" as="sourcePoint"/>
                        <mxPoint x="372" y="2538" as="targetPoint"/>
                    </mxGeometry>
                </mxCell>
                <mxCell id="41" value="" style="edgeStyle=none;html=1;strokeWidth=8;" edge="1" parent="1" source="39" target="40">
                    <mxGeometry relative="1" as="geometry"/>
                </mxCell>
                <mxCell id="39" value="Actor" style="shape=umlActor;verticalLabelPosition=bottom;verticalAlign=top;html=1;outlineConnect=0;shadow=0;dashed=1;dashPattern=1 4;gradientColor=none;" vertex="1" parent="1">
                    <mxGeometry x="290" y="2546" width="162" height="131" as="geometry"/>
                </mxCell>
                <mxCell id="40" value="Actor" style="shape=umlActor;verticalLabelPosition=bottom;verticalAlign=top;html=1;outlineConnect=0;shadow=0;dashed=1;dashPattern=1 4;gradientColor=none;" vertex="1" parent="1">
                    <mxGeometry x="376" y="2570" width="162" height="131" as="geometry"/>
                </mxCell>
                <mxCell id="42" value="List" style="swimlane;fontStyle=0;childLayout=stackLayout;horizontal=1;startSize=30;horizontalStack=0;resizeParent=1;resizeParentMax=0;resizeLast=0;collapsible=1;marginBottom=0;whiteSpace=wrap;html=1;shadow=0;dashed=1;dashPattern=1 4;gradientColor=none;swimlaneFillColor=default;" vertex="1" parent="1">
                    <mxGeometry x="1175" y="351" width="344" height="120" as="geometry"/>
                </mxCell>
                <mxCell id="43" value="buffersize is 5" style="text;strokeColor=none;fillColor=none;align=left;verticalAlign=middle;spacingLeft=4;spacingRight=4;overflow=hidden;points=[[0,0.5],[1,0.5]];portConstraint=eastwest;rotatable=0;whiteSpace=wrap;html=1;shadow=0;dashed=1;dashPattern=1 4;" vertex="1" parent="42">
                    <mxGeometry y="30" width="344" height="30" as="geometry"/>
                </mxCell>
                <mxCell id="44" value="file has 50 chars" style="text;strokeColor=none;fillColor=none;align=left;verticalAlign=middle;spacingLeft=4;spacingRight=4;overflow=hidden;points=[[0,0.5],[1,0.5]];portConstraint=eastwest;rotatable=0;whiteSpace=wrap;html=1;shadow=0;dashed=1;dashPattern=1 4;" vertex="1" parent="42">
                    <mxGeometry y="60" width="344" height="30" as="geometry"/>
                </mxCell>
                <mxCell id="45" value="but 1 line" style="text;strokeColor=none;fillColor=none;align=left;verticalAlign=middle;spacingLeft=4;spacingRight=4;overflow=hidden;points=[[0,0.5],[1,0.5]];portConstraint=eastwest;rotatable=0;whiteSpace=wrap;html=1;shadow=0;dashed=1;dashPattern=1 4;" vertex="1" parent="42">
                    <mxGeometry y="90" width="344" height="30" as="geometry"/>
                </mxCell>
                <mxCell id="46" value="check if the stattic has a newline&amp;nbsp;" style="rhombus;whiteSpace=wrap;html=1;shadow=0;dashed=1;dashPattern=1 4;gradientColor=none;" vertex="1" parent="1">
                    <mxGeometry x="364" y="975" width="80" height="80" as="geometry"/>
                </mxCell>
                <mxCell id="47" value="" style="shape=flexArrow;endArrow=classic;html=1;fillColor=#a20025;strokeColor=#6F0000;" edge="1" parent="1" target="19">
                    <mxGeometry width="50" height="50" relative="1" as="geometry">
                        <mxPoint x="398.0043478260868" y="1053.304347826087" as="sourcePoint"/>
                        <mxPoint x="546.6999999999998" y="1011.9999999999999" as="targetPoint"/>
                    </mxGeometry>
                </mxCell>
                <mxCell id="48" value="&amp;nbsp;abc cde efg asdf asd. adsf asdf as \n" style="shape=step;perimeter=stepPerimeter;whiteSpace=wrap;html=1;fixedSize=1;shadow=0;dashed=1;dashPattern=1 4;gradientColor=none;" vertex="1" parent="1">
                    <mxGeometry x="889" y="646" width="765" height="80" as="geometry"/>
                </mxCell>
                <mxCell id="49" value="" style="curved=1;endArrow=classic;html=1;strokeWidth=8;exitX=1;exitY=0.5;exitDx=0;exitDy=0;fillColor=#60a917;strokeColor=#2D7600;entryX=0.5;entryY=0;entryDx=0;entryDy=0;" edge="1" parent="1" source="46" target="30">
                    <mxGeometry width="50" height="50" relative="1" as="geometry">
                        <mxPoint x="986" y="1151" as="sourcePoint"/>
                        <mxPoint x="1036" y="1101" as="targetPoint"/>
                        <Array as="points">
                            <mxPoint x="872" y="952"/>
                            <mxPoint x="1257" y="1360"/>
                            <mxPoint x="1225" y="1034"/>
                            <mxPoint x="705" y="1458"/>
                            <mxPoint x="1036" y="1151"/>
                            <mxPoint x="986" y="1101"/>
                            <mxPoint x="785" y="1064"/>
                            <mxPoint x="1277" y="1251"/>
                            <mxPoint x="1054" y="1513"/>
                            <mxPoint x="773" y="1604"/>
                            <mxPoint x="864" y="1081"/>
                        </Array>
                    </mxGeometry>
                </mxCell>
                <mxCell id="50" value="" style="shape=flexArrow;endArrow=classic;html=1;fillColor=#008a00;strokeColor=#005700;width=22;endSize=21.78;exitX=0.46;exitY=0.955;exitDx=0;exitDy=0;exitPerimeter=0;" edge="1" parent="1" source="27" target="21">
                    <mxGeometry width="50" height="50" relative="1" as="geometry">
                        <mxPoint x="208.4855207986446" y="1444.0011495699737" as="sourcePoint"/>
                        <mxPoint x="204.99999999999983" y="1948.04" as="targetPoint"/>
                    </mxGeometry>
                </mxCell>
                <mxCell id="51" value="" style="endArrow=none;dashed=1;html=1;dashPattern=1 3;strokeWidth=2;fillColor=#d80073;strokeColor=#A50040;" edge="1" parent="1" source="21" target="46">
                    <mxGeometry width="50" height="50" relative="1" as="geometry">
                        <mxPoint x="-189" y="1417" as="sourcePoint"/>
                        <mxPoint x="-139" y="1367" as="targetPoint"/>
                    </mxGeometry>
                </mxCell>
                <mxCell id="52" value="store in result" style="rounded=1;whiteSpace=wrap;html=1;shadow=0;dashed=1;dashPattern=1 4;gradientColor=none;" vertex="1" parent="1">
                    <mxGeometry x="-80" y="1281" width="246" height="123" as="geometry"/>
                </mxCell>
                <mxCell id="53" value="" style="shape=flexArrow;endArrow=classic;html=1;strokeWidth=8;" edge="1" parent="1" target="19">
                    <mxGeometry width="50" height="50" relative="1" as="geometry">
                        <mxPoint x="131" y="1281" as="sourcePoint"/>
                        <mxPoint x="181" y="1231" as="targetPoint"/>
                    </mxGeometry>
                </mxCell>
                <mxCell id="54" value="Actor" style="shape=umlActor;verticalLabelPosition=bottom;verticalAlign=top;html=1;outlineConnect=0;shadow=0;dashed=1;dashPattern=1 4;gradientColor=none;" vertex="1" parent="1">
                    <mxGeometry x="1166" y="1060" width="30" height="60" as="geometry"/>
                </mxCell>
                <mxCell id="55" value="Actor" style="shape=umlActor;verticalLabelPosition=bottom;verticalAlign=top;html=1;outlineConnect=0;shadow=0;dashed=1;dashPattern=1 4;gradientColor=none;rotation=15;" vertex="1" parent="1">
                    <mxGeometry x="768" y="940" width="30" height="60" as="geometry"/>
                </mxCell>
                <mxCell id="57" value="" style="shape=flexArrow;endArrow=classic;html=1;strokeWidth=8;" edge="1" parent="1">
                    <mxGeometry width="50" height="50" relative="1" as="geometry">
                        <mxPoint x="-535" y="803" as="sourcePoint"/>
                        <mxPoint x="-506" y="655" as="targetPoint"/>
                    </mxGeometry>
                </mxCell>
                <mxCell id="58" value="" style="shape=flexArrow;endArrow=classic;html=1;strokeWidth=8;" edge="1" parent="1">
                    <mxGeometry width="50" height="50" relative="1" as="geometry">
                        <mxPoint x="-236" y="715" as="sourcePoint"/>
                        <mxPoint x="-188" y="950" as="targetPoint"/>
                        <Array as="points">
                            <mxPoint x="-210" y="828"/>
                        </Array>
                    </mxGeometry>
                </mxCell>
                <mxCell id="59" value="" style="shape=flexArrow;endArrow=classic;html=1;strokeWidth=8;" edge="1" parent="1">
                    <mxGeometry width="50" height="50" relative="1" as="geometry">
                        <mxPoint x="-263" y="968" as="sourcePoint"/>
                        <mxPoint x="-494" y="871" as="targetPoint"/>
                    </mxGeometry>
                </mxCell>
                <mxCell id="60" value="alloc + newstrlen" style="ellipse;whiteSpace=wrap;html=1;shadow=0;dashed=1;dashPattern=1 4;gradientColor=none;" vertex="1" parent="1">
                    <mxGeometry x="-286" y="615" width="120" height="80" as="geometry"/>
                </mxCell>
                <mxCell id="61" value="copy" style="ellipse;whiteSpace=wrap;html=1;shadow=0;dashed=1;dashPattern=1 4;gradientColor=none;" vertex="1" parent="1">
                    <mxGeometry x="-262" y="947" width="120" height="80" as="geometry"/>
                </mxCell>
                <mxCell id="62" value="free the old" style="ellipse;whiteSpace=wrap;html=1;shadow=0;dashed=1;dashPattern=1 4;gradientColor=none;" vertex="1" parent="1">
                    <mxGeometry x="-641" y="807" width="120" height="80" as="geometry"/>
                </mxCell>
                <mxCell id="63" value="getnew string" style="ellipse;whiteSpace=wrap;html=1;shadow=0;dashed=1;dashPattern=1 4;gradientColor=none;" vertex="1" parent="1">
                    <mxGeometry x="-580" y="563" width="120" height="80" as="geometry"/>
                </mxCell>
                <mxCell id="64" value="" style="shape=flexArrow;endArrow=classic;html=1;strokeWidth=8;entryX=0;entryY=0.5;entryDx=0;entryDy=0;" edge="1" parent="1" target="60">
                    <mxGeometry width="50" height="50" relative="1" as="geometry">
                        <mxPoint x="-449" y="633" as="sourcePoint"/>
                        <mxPoint x="-473" y="590" as="targetPoint"/>
                    </mxGeometry>
                </mxCell>
            </root>
        </mxGraphModel>
    </diagram>
</mxfile>